<svg width="40" height="40" viewBox="0 0 40 40" fill="none" xmlns="http://www.w3.org/2000/svg">
<circle opacity="0.1" cx="20" cy="20" r="20" fill="#5718FF"/>
<path d="M14.4088 29.7755L14.4088 29.7753C14.2428 29.7637 14.1051 29.6935 14.0102 29.5773C13.9355 29.4858 13.8912 29.3707 13.8762 29.243H13.8677V29.143C13.8677 27.8381 14.2138 26.6162 14.8134 25.5614H11.4354C11.2648 25.5614 11.1185 25.4984 11.0151 25.3838C10.9129 25.2704 10.8596 25.1146 10.8564 24.9395M14.4088 29.7755L10.9564 24.9373M14.4088 29.7755L14.4158 29.7755L27.5545 29.7784C27.8752 29.7784 28.1336 29.5188 28.1336 29.1993C28.1336 27.9325 27.7597 26.6106 27.1653 25.5615L30.564 25.5606C30.8846 25.5606 31.143 25.301 31.143 24.9815L31.143 24.9803C31.1125 22.5787 29.7612 20.5478 27.6421 19.6785C28.7861 18.9512 29.5184 17.6743 29.5184 16.259C29.5184 12.796 25.468 10.9613 22.9042 13.2053C21.6927 12.7061 20.307 12.7061 19.0955 13.2053C18.377 12.5769 17.4539 12.2225 16.482 12.2225C12.4525 12.2225 10.9953 17.5735 14.3568 19.6801M14.4088 29.7755L14.5835 19.6986C14.5459 19.6774 14.5089 19.6558 14.4724 19.6337C14.4337 19.6487 14.3951 19.6642 14.3568 19.6801M10.8564 24.9395C10.8564 24.9394 10.8564 24.9393 10.8564 24.9391L10.9564 24.9373M10.8564 24.9395C10.8564 24.9396 10.8564 24.9397 10.8564 24.9398L10.9564 24.9373M10.8564 24.9395C10.8009 22.6744 12.279 20.5403 14.3568 19.6801M10.9564 24.9373C10.9012 22.691 12.3857 20.5712 14.4633 19.7447C14.4273 19.7235 14.3918 19.702 14.3568 19.6801M14.9877 25.4614H14.8713L14.9287 25.5614C14.9481 25.5279 14.9678 25.4946 14.9877 25.4614ZM27.529 14.2208L27.529 14.2208C29.2108 15.9195 28.1948 18.8304 25.877 19.118C26.3723 17.1142 25.609 15.0353 23.9941 13.8271C25.1109 13.1096 26.5823 13.2636 27.529 14.2208ZM16.1248 19.1177C14.7124 18.9379 13.6403 17.7188 13.6403 16.2608C13.6403 13.9608 16.15 12.6264 18.008 13.827C16.3931 15.0351 15.6298 17.1138 16.1248 19.1177ZM24.4988 19.5398C23.118 22.541 18.882 22.5437 17.5012 19.5399C16.2785 16.8771 18.2423 13.9895 20.9891 13.989C23.9025 14.0253 25.6823 16.9672 24.4988 19.5398ZM12.046 24.4043C12.3122 22.0953 14.2811 20.3435 16.6466 20.4198C17.1147 21.2353 17.8014 21.9107 18.6306 22.3566C17.4649 22.7713 16.4356 23.482 15.6347 24.4042L12.046 24.4043ZM26.3445 24.4042C25.5465 23.4875 24.5227 22.7755 23.3623 22.3621C24.1946 21.9141 24.8859 21.2383 25.3561 20.4198C27.7216 20.3434 29.6905 22.0943 29.9567 24.4042H26.3445ZM15.048 28.6202C15.1692 27.1942 15.8066 25.8488 16.7718 24.8727C20.3811 21.2248 26.512 23.5852 26.9317 28.6202H15.048Z" fill="#5718FF" stroke="#5718FF" stroke-width="0.2"/>
<path d="M22.2471 18.7977L22.2395 18.8124C21.7073 19.8176 20.2757 19.8107 19.7509 18.7979C19.6665 18.6342 19.5368 18.5376 19.3924 18.5017C19.2506 18.4663 19.1019 18.4912 18.9774 18.5554C18.8528 18.6195 18.7462 18.7261 18.6926 18.8621C18.638 19.0006 18.6413 19.1624 18.7256 19.3264L18.7257 19.3266C19.6816 21.179 22.32 21.1791 23.275 19.3265C23.3596 19.1625 23.3631 19.0006 23.3085 18.862C23.2548 18.7258 23.1481 18.6192 23.0233 18.555C22.8985 18.4908 22.7495 18.4659 22.6073 18.5013C22.4625 18.5372 22.3322 18.6338 22.2471 18.7977ZM23.1861 19.2807C22.2683 21.061 19.7333 21.061 18.8145 19.2807L22.4019 18.7438C22.7353 18.3458 23.4544 18.7607 23.1861 19.2807Z" fill="#5718FF" stroke="#5718FF" stroke-width="0.2"/>
</svg>
