<svg width="100" height="100" viewBox="0 0 100 100" fill="none" xmlns="http://www.w3.org/2000/svg">
<circle opacity="0.16" cx="50" cy="50" r="50" fill="#213F7D"/>
<path d="M36.0408 65.1796C36.4799 62.2202 37.7939 59.6264 39.9799 57.4C42.7408 54.6 46.0735 53.2 49.9799 53.2C53.8863 53.2 57.2207 54.6 59.9799 57.4C62.1799 59.6266 63.5064 62.2204 63.9595 65.1796M58.1408 44.0204C58.1408 46.247 57.347 48.1532 55.7595 49.7408C54.1736 51.3408 52.2533 52.1408 50.0003 52.1408C47.7597 52.1408 45.8411 51.3408 44.2411 49.7408C42.6536 48.1533 41.8599 46.247 41.8599 44.0204C41.8599 41.7673 42.6537 39.8468 44.2411 38.2596C45.8411 36.6737 47.7599 35.8799 50.0003 35.8799C52.2535 35.8799 54.1739 36.6737 55.7595 38.2596C57.3471 39.8471 58.1408 41.7674 58.1408 44.0204Z" stroke="#213F7D" stroke-width="3" stroke-linecap="round" stroke-linejoin="round"/>
</svg>
