<svg width="16" height="16" viewBox="0 0 16 16" fill="none" xmlns="http://www.w3.org/2000/svg">
<g clip-path="url(#clip0_20_648)">
<path opacity="0.4" d="M16 7.99998C16.0001 7.44017 15.8292 6.89368 15.5104 6.43355C15.1915 5.97342 14.7398 5.62155 14.2157 5.42498C14.4469 4.91548 14.5172 4.34757 14.4172 3.79707C14.3172 3.24656 14.0516 2.73966 13.656 2.34402C13.2604 1.94839 12.7535 1.68284 12.203 1.58284C11.6525 1.48284 11.0845 1.55314 10.575 1.78436C10.3785 1.26014 10.0267 0.808385 9.56654 0.489476C9.1064 0.170567 8.55989 -0.000305176 8.00004 -0.000305176C7.4402 -0.000305176 6.89368 0.170567 6.43355 0.489476C5.97341 0.808385 5.62157 1.26014 5.42504 1.78436C4.91554 1.55314 4.34763 1.48284 3.79713 1.58284C3.24662 1.68284 2.73972 1.94839 2.34408 2.34402C1.94845 2.73966 1.68291 3.24656 1.58291 3.79707C1.48291 4.34757 1.5532 4.91548 1.78442 5.42498C1.2602 5.62151 0.808446 5.97335 0.489537 6.43349C0.170628 6.89362 -0.000244141 7.44014 -0.000244141 7.99998C-0.000244141 8.55983 0.170628 9.10634 0.489537 9.56648C0.808446 10.0266 1.2602 10.3785 1.78442 10.575C1.5532 11.0845 1.48291 11.6524 1.58291 12.2029C1.68291 12.7534 1.94845 13.2603 2.34408 13.6559C2.73972 14.0516 3.24662 14.3171 3.79713 14.4171C4.34763 14.5171 4.91554 14.4468 5.42504 14.2156C5.62157 14.7398 5.97341 15.1916 6.43355 15.5105C6.89368 15.8294 7.4402 16.0003 8.00004 16.0003C8.55989 16.0003 9.1064 15.8294 9.56654 15.5105C10.0267 15.1916 10.3785 14.7398 10.575 14.2156C11.0845 14.4468 11.6525 14.5171 12.203 14.4171C12.7535 14.3171 13.2604 14.0516 13.656 13.6559C14.0516 13.2603 14.3172 12.7534 14.4172 12.2029C14.5172 11.6524 14.4469 11.0845 14.2157 10.575C14.7398 10.3784 15.1915 10.0266 15.5104 9.56642C15.8292 9.10628 16.0001 8.5598 16 7.99998ZM6.00004 4.99998C6.19783 4.99998 6.39117 5.05863 6.55561 5.16851C6.72006 5.2784 6.84824 5.43457 6.92392 5.6173C6.99961 5.80003 7.01941 6.00109 6.98083 6.19507C6.94224 6.38905 6.847 6.56724 6.70715 6.70709C6.5673 6.84694 6.38912 6.94218 6.19513 6.98077C6.00115 7.01935 5.80009 6.99955 5.61736 6.92386C5.43464 6.84818 5.27846 6.72 5.16857 6.55555C5.05869 6.3911 5.00004 6.19776 5.00004 5.99998C5.00004 5.73477 5.1054 5.48041 5.29294 5.29288C5.48047 5.10534 5.73483 4.99998 6.00004 4.99998ZM6.38379 10.6765C6.33736 10.723 6.28224 10.7598 6.22157 10.785C6.1609 10.8101 6.09587 10.823 6.0302 10.823C5.96453 10.823 5.8995 10.8101 5.83883 10.785C5.77816 10.7598 5.72304 10.723 5.67661 10.6765L5.32317 10.3231C5.27673 10.2767 5.23989 10.2216 5.21475 10.1609C5.18962 10.1002 5.17668 10.0352 5.17668 9.96951C5.17668 9.90384 5.18962 9.83882 5.21475 9.77815C5.23989 9.71748 5.27673 9.66235 5.32317 9.61592L9.61598 5.32311C9.66241 5.27667 9.71754 5.23983 9.77821 5.21469C9.83888 5.18956 9.9039 5.17662 9.96957 5.17662C10.0352 5.17662 10.1003 5.18956 10.1609 5.21469C10.2216 5.23983 10.2767 5.27667 10.3232 5.32311L10.6766 5.67655C10.723 5.72298 10.7599 5.7781 10.785 5.83877C10.8102 5.89944 10.8231 5.96447 10.8231 6.03014C10.8231 6.09581 10.8102 6.16084 10.785 6.22151C10.7599 6.28218 10.723 6.3373 10.6766 6.38373L6.38379 10.6765ZM10 11C9.80226 11 9.60892 10.9413 9.44447 10.8315C9.28002 10.7216 9.15185 10.5654 9.07616 10.3827C9.00048 10.1999 8.98067 9.99887 9.01926 9.80489C9.05784 9.61091 9.15308 9.43273 9.29294 9.29288C9.43279 9.15302 9.61097 9.05778 9.80495 9.0192C9.99893 8.98061 10.2 9.00042 10.3827 9.0761C10.5655 9.15179 10.7216 9.27996 10.8315 9.44441C10.9414 9.60886 11 9.8022 11 9.99998C11 10.2652 10.8947 10.5196 10.7072 10.7071C10.5196 10.8946 10.2653 11 10 11Z" fill="#213F7D"/>
<path d="M6 5C6.19778 5 6.39112 5.05865 6.55557 5.16853C6.72002 5.27841 6.84819 5.43459 6.92388 5.61732C6.99957 5.80004 7.01937 6.00111 6.98079 6.19509C6.9422 6.38907 6.84696 6.56725 6.70711 6.70711C6.56725 6.84696 6.38907 6.9422 6.19509 6.98079C6.00111 7.01937 5.80004 6.99957 5.61732 6.92388C5.43459 6.84819 5.27841 6.72002 5.16853 6.55557C5.05865 6.39112 5 6.19778 5 6C5 5.73478 5.10536 5.48043 5.29289 5.29289C5.48043 5.10536 5.73478 5 6 5ZM6.38375 10.6766C6.33732 10.723 6.28219 10.7598 6.22152 10.785C6.16085 10.8101 6.09583 10.823 6.03016 10.823C5.96449 10.823 5.89946 10.8101 5.83879 10.785C5.77812 10.7598 5.72299 10.723 5.67656 10.6766L5.32312 10.3231C5.27668 10.2767 5.23984 10.2216 5.21471 10.1609C5.18957 10.1002 5.17664 10.0352 5.17664 9.96953C5.17664 9.90386 5.18957 9.83883 5.21471 9.77816C5.23984 9.71749 5.27668 9.66237 5.32312 9.61594L9.61594 5.32312C9.66237 5.27668 9.71749 5.23984 9.77816 5.21471C9.83883 5.18957 9.90386 5.17664 9.96953 5.17664C10.0352 5.17664 10.1002 5.18957 10.1609 5.21471C10.2216 5.23984 10.2767 5.27668 10.3231 5.32312L10.6766 5.67656C10.723 5.72299 10.7598 5.77812 10.785 5.83879C10.8101 5.89946 10.823 5.96449 10.823 6.03016C10.823 6.09583 10.8101 6.16085 10.785 6.22152C10.7598 6.28219 10.723 6.33732 10.6766 6.38375L6.38375 10.6766ZM10 11C9.80222 11 9.60888 10.9414 9.44443 10.8315C9.27998 10.7216 9.15181 10.5654 9.07612 10.3827C9.00043 10.2 8.98063 9.99889 9.01921 9.80491C9.0578 9.61093 9.15304 9.43275 9.29289 9.29289C9.43275 9.15304 9.61093 9.0578 9.80491 9.01921C9.99889 8.98063 10.2 9.00043 10.3827 9.07612C10.5654 9.15181 10.7216 9.27998 10.8315 9.44443C10.9414 9.60888 11 9.80222 11 10C11 10.2652 10.8946 10.5196 10.7071 10.7071C10.5196 10.8946 10.2652 11 10 11Z" fill="#213F7D"/>
</g>
<defs>
<clipPath id="clip0_20_648">
<rect width="16" height="16" fill="white"/>
</clipPath>
</defs>
</svg>
