<svg width="16" height="16" viewBox="0 0 16 16" fill="none" xmlns="http://www.w3.org/2000/svg">
<path d="M9.77415 6.66963L9.77976 6.66582L9.75994 6.59627C9.71637 6.44333 9.56412 6.32762 9.39902 6.34768C9.36778 6.34936 9.29252 6.35927 9.19023 6.38425C9.0741 6.41262 8.91767 6.4617 8.74087 6.5449C8.40555 6.7027 7.9972 6.98317 7.65272 7.47625C7.38773 7.30785 6.97337 7.15787 6.42665 7.29393C6.29067 7.31879 6.17495 7.43287 6.17132 7.59219C6.08104 8.23014 6.30852 8.84741 6.61311 9.35902C6.91339 9.86338 7.29499 10.2758 7.54673 10.5209C7.56261 10.5582 7.58055 10.594 7.59555 10.6239L7.59581 10.6244C7.61109 10.6549 7.62183 10.6766 7.62833 10.6922C7.63652 10.8631 7.64834 11.0075 7.66019 11.1146C7.66629 11.1697 7.67248 11.2157 7.67833 11.2506C7.68124 11.268 7.68423 11.2836 7.68728 11.2966C7.68877 11.3031 7.69099 11.3122 7.69424 11.3218C7.72466 11.4852 7.88332 11.5874 8.03123 11.5874H8.07935V11.5882L8.09194 11.5866C8.27329 11.5636 8.4135 11.385 8.36936 11.1959L8.36865 11.1914L8.36499 11.1666C8.36186 11.1447 8.35748 11.1121 8.35259 11.0699C8.34373 10.9937 8.33319 10.8866 8.32534 10.7559C8.56217 10.4972 9.20018 9.75682 9.52878 9.1003L9.52879 9.10031L9.5295 9.09883C9.81895 8.49604 9.87602 7.8828 9.86173 7.4168C9.85457 7.18344 9.82949 6.98594 9.80619 6.84366C9.79454 6.77248 9.78333 6.71516 9.7751 6.67436L9.77415 6.66963ZM6.98193 8.07858C6.92097 8.12217 6.8807 8.17847 6.85884 8.23969C6.83699 8.13851 6.82353 8.03686 6.82021 7.93543C6.98566 7.93504 7.11772 7.97422 7.21929 8.02466C7.14084 8.01591 7.05976 8.03346 6.99043 8.07313L6.99018 8.07268L6.98193 8.07858ZM8.89417 8.78798C8.75741 9.05723 8.55621 9.3521 8.35435 9.61323C8.44364 9.07763 8.62876 8.48307 9.0089 7.96331L9.00891 7.96332L9.00953 7.96245C9.11815 7.81055 9.09978 7.6022 8.93823 7.48668C8.82315 7.40439 8.67566 7.39499 8.56069 7.46552C8.77006 7.28696 8.97687 7.18321 9.13941 7.12279C9.20062 7.49403 9.20823 8.15933 8.90248 8.77133L8.89417 8.78798ZM8.00887 8.17271C8.1477 7.90648 8.30813 7.70283 8.47062 7.54701C8.4681 7.55028 8.46561 7.55361 8.46317 7.557C8.17372 7.94344 7.97572 8.36364 7.84149 8.77625C7.86217 8.57287 7.91479 8.36898 8.00887 8.17271Z" fill="#213F7D" stroke="#213F7D" stroke-width="0.2"/>
<path d="M4.46006 11.84C4.46006 12.0234 4.61671 12.18 4.80006 12.18C4.98341 12.18 5.14006 12.0234 5.14006 11.84V5.76C5.14006 5.57665 4.98341 5.42 4.80006 5.42C4.61671 5.42 4.46006 5.57665 4.46006 5.76V11.84Z" fill="#213F7D" stroke="#213F7D" stroke-width="0.2"/>
<path d="M2.86008 11.84C2.86008 12.0234 3.01673 12.18 3.20008 12.18C3.38344 12.18 3.54008 12.0234 3.54008 11.84V5.76C3.54008 5.57665 3.38344 5.42 3.20008 5.42C3.01673 5.42 2.86008 5.57665 2.86008 5.76V11.84Z" fill="#213F7D" stroke="#213F7D" stroke-width="0.2"/>
<path d="M10.8601 11.84C10.8601 12.0234 11.0167 12.18 11.2001 12.18C11.3834 12.18 11.5401 12.0234 11.5401 11.84V5.76C11.5401 5.57665 11.3834 5.42 11.2001 5.42C11.0167 5.42 10.8601 5.57665 10.8601 5.76V11.84Z" fill="#213F7D" stroke="#213F7D" stroke-width="0.2"/>
<path d="M12.4601 11.84C12.4601 12.0234 12.6167 12.18 12.8001 12.18C12.9834 12.18 13.1401 12.0234 13.1401 11.84V5.76C13.1401 5.57665 12.9834 5.42 12.8001 5.42C12.6167 5.42 12.4601 5.57665 12.4601 5.76V11.84Z" fill="#213F7D" stroke="#213F7D" stroke-width="0.2"/>
<path d="M13.5818 5.3H13.36H2.64004C2.48648 5.3 2.34567 5.1924 2.31862 5.04572C2.27553 4.88566 2.35048 4.75014 2.4727 4.66866L2.47684 4.6659L2.47691 4.66601L7.83662 1.46618C7.83666 1.46616 7.83671 1.46613 7.83675 1.4661L7.83691 1.46601L7.88817 1.55187C7.96817 1.50375 8.06442 1.50375 8.12817 1.55187L13.5818 5.3ZM13.5818 5.3L13.5366 5.24882C13.6335 5.18884 13.7013 5.08328 13.7149 4.97134L13.7156 4.97143V4.9593C13.7156 4.8291 13.6337 4.69699 13.517 4.64605L8.18352 1.46845L13.5818 5.3ZM12.119 4.62H3.86586L7.99994 2.1484L12.119 4.62Z" fill="#213F7D" stroke="#213F7D" stroke-width="0.2"/>
<path d="M2.64002 12.98H13.36C13.5434 12.98 13.7 12.8233 13.7 12.64C13.7 12.4566 13.5434 12.3 13.36 12.3H2.64002C2.45667 12.3 2.30002 12.4566 2.30002 12.64C2.30002 12.8233 2.45667 12.98 2.64002 12.98Z" fill="#213F7D" stroke="#213F7D" stroke-width="0.2"/>
<path d="M1.8401 13.78H14.1601C14.3435 13.78 14.5001 13.6234 14.5001 13.44C14.5001 13.2566 14.3435 13.1 14.1601 13.1H1.8401C1.65674 13.1 1.5001 13.2566 1.5001 13.44C1.5001 13.6234 1.65674 13.78 1.8401 13.78Z" fill="#213F7D" stroke="#213F7D" stroke-width="0.2"/>
<path d="M1.04005 14.58H14.96C15.1434 14.58 15.3 14.4234 15.3 14.24C15.3 14.0566 15.1434 13.9 14.96 13.9H1.04005C0.856696 13.9 0.700049 14.0566 0.700049 14.24C0.700049 14.4234 0.856696 14.58 1.04005 14.58Z" fill="#213F7D" stroke="#213F7D" stroke-width="0.2"/>
</svg>
