<svg width="16" height="13" viewBox="0 0 16 13" fill="none" xmlns="http://www.w3.org/2000/svg">
<g clip-path="url(#clip0_20_706)">
<path opacity="0.4" d="M15.9076 9.705L15.2626 9.3325C15.3276 8.98048 15.3276 8.61953 15.2626 8.2675L15.9076 7.895C15.9436 7.87441 15.9714 7.84206 15.9865 7.80337C16.0015 7.76469 16.0028 7.72201 15.9901 7.6825C15.8239 7.14827 15.5403 6.65796 15.1601 6.2475C15.1321 6.21699 15.0946 6.1969 15.0537 6.19054C15.0128 6.18418 14.971 6.19193 14.9351 6.2125L14.2901 6.585C14.0176 6.35272 13.705 6.17225 13.3676 6.0525V5.3075C13.3675 5.26613 13.3534 5.22599 13.3275 5.19373C13.3016 5.16146 13.2655 5.13898 13.2251 5.13C12.6802 5.00749 12.1149 5.00749 11.5701 5.13C11.5297 5.13898 11.4935 5.16146 11.4676 5.19373C11.4417 5.22599 11.4276 5.26613 11.4276 5.3075V6.0525C11.0902 6.17225 10.7775 6.35272 10.5051 6.585L9.86006 6.2125C9.82413 6.19202 9.78231 6.18432 9.74144 6.19068C9.70057 6.19704 9.66307 6.21707 9.63506 6.2475C9.25486 6.65796 8.97127 7.14827 8.80506 7.6825C8.79298 7.72204 8.79454 7.7645 8.8095 7.80304C8.82447 7.84159 8.85196 7.87398 8.88756 7.895L9.53256 8.2675C9.46756 8.61953 9.46756 8.98048 9.53256 9.3325L8.88756 9.705C8.85153 9.7256 8.82368 9.75795 8.80866 9.79664C8.79364 9.83532 8.79237 9.87799 8.80506 9.9175C8.97185 10.4515 9.25537 10.9417 9.63506 11.3525C9.66302 11.383 9.70053 11.4031 9.74142 11.4095C9.78232 11.4158 9.82416 11.4081 9.86006 11.3875L10.5051 11.015C10.7775 11.2473 11.0902 11.4278 11.4276 11.5475V12.2925C11.4276 12.3339 11.4417 12.374 11.4676 12.4063C11.4935 12.4385 11.5297 12.461 11.5701 12.47C12.1149 12.5925 12.6802 12.5925 13.2251 12.47C13.2655 12.461 13.3016 12.4385 13.3275 12.4063C13.3534 12.374 13.3675 12.3339 13.3676 12.2925V11.5475C13.705 11.4278 14.0176 11.2473 14.2901 11.015L14.9351 11.3875C14.971 11.408 15.0128 11.4157 15.0537 11.4093C15.0945 11.403 15.1321 11.3829 15.1601 11.3525C15.5403 10.942 15.8239 10.4517 15.9901 9.9175C16.0021 9.87796 16.0006 9.83551 15.9856 9.79696C15.9707 9.75842 15.9432 9.72603 15.9076 9.705ZM12.4001 10.0125C12.1603 10.0125 11.9258 9.94139 11.7264 9.80816C11.527 9.67493 11.3716 9.48556 11.2799 9.26401C11.1881 9.04245 11.1641 8.79866 11.2109 8.56346C11.2576 8.32826 11.3731 8.11221 11.5427 7.94264C11.7123 7.77307 11.9283 7.65759 12.1635 7.6108C12.3987 7.56402 12.6425 7.58803 12.8641 7.6798C13.0856 7.77157 13.275 7.92698 13.4082 8.12637C13.5415 8.32577 13.6126 8.56019 13.6126 8.8C13.6122 9.12148 13.4844 9.42969 13.2571 9.65701C13.0297 9.88432 12.7215 10.0122 12.4001 10.0125Z" fill="#213F7D"/>
<path d="M10.63 12.2924V12.0624C10.5725 12.0324 10.515 11.9974 10.46 11.9649L10.2625 12.0799C10.0697 12.1918 9.84461 12.2347 9.62421 12.2015C9.40382 12.1684 9.20129 12.0611 9.05 11.8974C8.58975 11.3994 8.24641 10.805 8.045 10.1574C7.97798 9.94453 7.98582 9.71509 8.06723 9.50726C8.14863 9.29942 8.2987 9.12569 8.4925 9.01494L8.69 8.89994C8.6875 8.83494 8.6875 8.76994 8.69 8.70494L8.4925 8.58994C8.29857 8.47933 8.14839 8.30561 8.06696 8.09773C7.98554 7.88985 7.97779 7.66034 8.045 7.44744C8.0675 7.37494 8.1 7.30244 8.125 7.22994C8.03 7.22244 7.9375 7.19994 7.84 7.19994H7.4225C6.85106 7.46346 6.22927 7.59993 5.6 7.59993C4.97073 7.59993 4.34894 7.46346 3.7775 7.19994H3.36C2.46893 7.20014 1.61442 7.5542 0.984341 8.18428C0.354262 8.81436 0.000198832 9.66887 0 10.5599L0 11.5999C0 11.9182 0.126428 12.2234 0.351472 12.4485C0.576515 12.6735 0.88174 12.7999 1.2 12.7999H10C10.243 12.7997 10.4801 12.7256 10.68 12.5874C10.6483 12.4923 10.6314 12.3928 10.63 12.2924ZM5.6 6.39994C6.2329 6.39994 6.85159 6.21226 7.37782 5.86064C7.90406 5.50902 8.31421 5.00925 8.55641 4.42453C8.79862 3.8398 8.86199 3.19639 8.73851 2.57565C8.61504 1.95491 8.31027 1.38473 7.86274 0.937199C7.41521 0.489671 6.84503 0.1849 6.22429 0.0614275C5.60355 -0.0620452 4.96014 0.00132546 4.37541 0.243526C3.79069 0.485726 3.29092 0.895878 2.9393 1.42212C2.58768 1.94835 2.4 2.56704 2.4 3.19994C2.4 4.04863 2.73714 4.86257 3.33726 5.46268C3.93737 6.0628 4.75131 6.39994 5.6 6.39994Z" fill="#213F7D"/>
</g>
<defs>
<clipPath id="clip0_20_706">
<rect width="16" height="12.8" fill="white"/>
</clipPath>
</defs>
</svg>
