<svg width="16" height="16" viewBox="0 0 16 16" fill="none" xmlns="http://www.w3.org/2000/svg">
<g clip-path="url(#clip0_20_697)">
<path opacity="0.4" d="M4.76289 11.8763C4.27079 11.7742 3.7942 11.608 3.34529 11.382C2.56301 11.498 1.76397 11.4051 1.02915 11.1127C0.608989 10.9443 0.239607 11.4464 0.525982 11.7969C0.960104 12.3262 1.47963 12.7791 2.06308 13.137C3.57369 14.0704 5.44709 14.2437 7.10015 13.6828C7.54342 13.0917 7.83338 12.4 7.94414 11.6695C6.92104 12.0204 5.8228 12.0918 4.76289 11.8763ZM4.33064 7.94416C3.97965 6.92105 3.90826 5.82276 4.12385 4.76283C4.22595 4.27076 4.39207 3.79419 4.61799 3.34529C4.50216 2.56297 4.59505 1.76394 4.88727 1.02906C5.05573 0.609021 4.55354 0.239454 4.20308 0.525769C3.67384 0.95986 3.22094 1.47942 2.86312 2.06294C1.92978 3.57362 1.75644 5.44697 2.31723 7.10004C2.90838 7.54333 3.6001 7.83333 4.33064 7.94416ZM11.6695 8.05585C12.0204 9.07896 12.0918 10.1772 11.8762 11.2372C11.7741 11.7293 11.608 12.2058 11.3821 12.6547C11.4979 13.437 11.405 14.2361 11.1128 14.9709C10.9444 15.391 11.4466 15.7606 11.797 15.4742C12.3262 15.0401 12.7791 14.5206 13.137 13.9371C14.0703 12.4264 14.2437 10.553 13.6829 8.89997C13.0917 8.45668 12.4 8.16668 11.6695 8.05585ZM15.4741 4.20307C15.04 3.67382 14.5205 3.22086 13.937 2.86293C12.4264 1.92964 10.553 1.75636 8.89994 2.31715C8.45666 2.90827 8.16669 3.59999 8.05595 4.33051C9.07905 3.97958 10.1773 3.90819 11.2372 4.12373C11.7293 4.22584 12.2059 4.39199 12.6548 4.61793C13.4371 4.50198 14.2361 4.59488 14.9709 4.88722C15.3911 5.05567 15.7605 4.55354 15.4741 4.20307Z" fill="#213F7D"/>
<path d="M15.8305 8.56574C15.3056 6.34369 13.4761 4.57081 11.2371 4.12372C10.1772 3.90819 9.07898 3.97958 8.05588 4.33051C8.16961 3.5738 8.47478 2.85869 8.94245 2.25302C9.41012 1.64735 10.0248 1.17121 10.7281 0.869758C11.1442 0.69178 11.0505 0.0754466 10.6002 0.0300985C9.91897 -0.0371332 9.23132 0.0099635 8.56564 0.169442C6.34374 0.694344 4.5708 2.52381 4.12379 4.76282C3.90819 5.82276 3.97958 6.92104 4.33057 7.94415C3.57385 7.8304 2.85874 7.5252 2.25307 7.05753C1.6474 6.58985 1.17125 5.97519 0.869783 5.27185C0.691806 4.85578 0.0754766 4.94947 0.0300682 5.39979C-0.0371723 6.08098 0.00994484 6.76862 0.169471 7.43427C0.694369 9.65631 2.52382 11.4292 4.76282 11.8763C5.82273 12.0918 6.92098 12.0204 7.94407 11.6695C7.83034 12.4262 7.52517 13.1413 7.0575 13.747C6.58983 14.3527 5.97518 14.8288 5.27185 15.1302C4.85571 15.3082 4.94946 15.9246 5.39978 15.9699C6.08098 16.0371 6.76863 15.99 7.43431 15.8306C9.65621 15.3057 11.4291 13.4762 11.8762 11.2372C12.0918 10.1772 12.0204 9.07896 11.6694 8.05585C12.4261 8.16961 13.1412 8.4748 13.7469 8.94248C14.3526 9.41016 14.8287 10.0248 15.1302 10.7281C15.3081 11.1442 15.9245 11.0505 15.9699 10.6002C16.0371 9.91903 15.99 9.23139 15.8305 8.56574ZM7.99998 9.5C7.7033 9.5 7.41329 9.41203 7.16662 9.24721C6.91994 9.08239 6.72768 8.84812 6.61415 8.57403C6.50062 8.29995 6.47091 7.99835 6.52879 7.70737C6.58666 7.4164 6.72952 7.14913 6.9393 6.93935C7.14908 6.72957 7.41635 6.5867 7.70733 6.52883C7.9983 6.47095 8.2999 6.50065 8.57399 6.61418C8.84808 6.72771 9.08235 6.91997 9.24717 7.16665C9.41199 7.41332 9.49996 7.70333 9.49996 8C9.49996 8.39782 9.34192 8.77935 9.06062 9.06065C8.77932 9.34195 8.3978 9.49999 7.99998 9.5Z" fill="#213F7D"/>
</g>
<defs>
<clipPath id="clip0_20_697">
<rect width="16" height="16" fill="white"/>
</clipPath>
</defs>
</svg>
