<svg width="40" height="40" viewBox="0 0 40 40" fill="none" xmlns="http://www.w3.org/2000/svg">
<circle opacity="0.1" cx="20" cy="20" r="20" fill="#F55F44"/>
<path d="M12.9617 11.4V27.4118H19.3157V26.2118H14.1617V12.6H20.1999V16.9578H24.3155V20.6538H25.5155V15.9256L21.0881 11.3998L12.9617 11.4ZM21.3999 13.436L23.6741 15.7578H21.3999V13.436Z" fill="#F55F44"/>
<path d="M15.3938 19.3524H22.604V20.5524H15.3938V19.3524Z" fill="#F55F44"/>
<path d="M15.3938 21.9524H19.004V23.1524H15.3938V21.9524Z" fill="#F55F44"/>
<path d="M29.0382 28.9422V23.4C29.0382 21.7719 25.1922 21.7258 24.7538 21.7258C24.3155 21.7258 20.4718 21.7758 20.4718 23.4V28.9796C20.4726 29.0406 20.4827 29.1007 20.5023 29.1577C20.8437 30.5601 24.3383 30.5999 24.7563 30.5999C25.1743 30.5999 28.9563 30.5523 29.0359 28.9741C29.0359 28.9656 29.0382 28.9562 29.0382 28.9421L29.0382 28.9422ZM27.8382 25.1422C27.5999 25.3618 26.4999 25.7203 24.7562 25.7203C23.0117 25.7203 21.9202 25.3617 21.6718 25.15V24.6344C22.8398 25.0602 24.4718 25.0782 24.7562 25.0782C25.0406 25.0782 26.6718 25.0578 27.8406 24.6344L27.8382 25.1422ZM21.6718 26.4758C22.8398 26.9016 24.4718 26.9196 24.7562 26.9196C25.0406 26.9196 26.6718 26.8993 27.8406 26.4758L27.8398 27C27.5922 27.2118 26.5 27.5704 24.7554 27.5704C23.0117 27.5704 21.9202 27.2 21.6718 27L21.6718 26.4758ZM24.7562 22.9298C26.2562 22.9298 27.2742 23.1954 27.6882 23.404C27.2741 23.604 26.2562 23.8783 24.7562 23.8783C23.2562 23.8783 22.2358 23.6142 21.8242 23.4001C22.2359 23.2001 23.2539 22.9298 24.7562 22.9298ZM21.6718 28.8344V28.318C22.8398 28.7438 24.4718 28.7618 24.7562 28.7618C25.0406 28.7618 26.6718 28.7415 27.8406 28.318V28.8336C27.5898 29.0461 26.5 29.4 24.7562 29.4C23.0117 29.4 21.9202 29.0461 21.6718 28.8344Z" fill="#F55F44"/>
</svg>
