<svg width="16" height="13" viewBox="0 0 16 13" fill="none" xmlns="http://www.w3.org/2000/svg">
<g clip-path="url(#clip0_20_814)">
<path opacity="0.4" d="M15.915 3.99C15.9696 4.04641 16 4.12198 15.9995 4.20051C15.999 4.27904 15.9678 4.35425 15.9125 4.41L12.38 7.915C12.3523 7.94247 12.3194 7.96421 12.2833 7.97895C12.2472 7.9937 12.2085 8.00117 12.1695 8.00094C12.1304 8.00071 12.0919 7.99277 12.0559 7.9776C12.02 7.96242 11.9874 7.9403 11.96 7.9125L9.91749 5.855C9.89002 5.82729 9.86828 5.79443 9.85354 5.75831C9.83879 5.72218 9.83132 5.6835 9.83155 5.64448C9.83178 5.60546 9.83971 5.56687 9.85489 5.53093C9.87006 5.49498 9.89219 5.46238 9.91999 5.435L10.6225 4.7375C10.6502 4.71003 10.6831 4.6883 10.7192 4.67355C10.7553 4.6588 10.794 4.65133 10.833 4.65156C10.872 4.65179 10.9106 4.65973 10.9466 4.6749C10.9825 4.69008 11.0151 4.7122 11.0425 4.74L12.18 5.885L14.8 3.285C14.8277 3.25753 14.8606 3.2358 14.8967 3.22105C14.9328 3.2063 14.9715 3.19883 15.0105 3.19906C15.0495 3.19929 15.0881 3.20723 15.1241 3.2224C15.16 3.23758 15.1926 3.2597 15.22 3.2875L15.915 3.99Z" fill="#213F7D"/>
<path d="M5.6 6.39994C6.2329 6.39994 6.85159 6.21227 7.37782 5.86065C7.90406 5.50903 8.31421 5.00925 8.55641 4.42453C8.79862 3.83981 8.86199 3.19639 8.73851 2.57566C8.61504 1.95492 8.31027 1.38473 7.86274 0.937203C7.41521 0.489675 6.84503 0.184904 6.22429 0.0614313C5.60355 -0.0620414 4.96014 0.00132928 4.37541 0.24353C3.79069 0.48573 3.29092 0.895882 2.9393 1.42212C2.58768 1.94836 2.4 2.56704 2.4 3.19994C2.4 4.04864 2.73714 4.86257 3.33726 5.46269C3.93737 6.0628 4.75131 6.39994 5.6 6.39994ZM7.84 7.19994H7.4225C6.85106 7.46347 6.22927 7.59993 5.6 7.59993C4.97073 7.59993 4.34894 7.46347 3.7775 7.19994H3.36C2.46893 7.20014 1.61442 7.55421 0.984341 8.18429C0.354262 8.81436 0.000198832 9.66888 0 10.5599L0 11.5999C0 11.9182 0.126428 12.2234 0.351472 12.4485C0.576515 12.6735 0.88174 12.7999 1.2 12.7999H10C10.3183 12.7999 10.6235 12.6735 10.8485 12.4485C11.0736 12.2234 11.2 11.9182 11.2 11.5999V10.5599C11.1998 9.66888 10.8457 8.81436 10.2157 8.18429C9.58558 7.55421 8.73107 7.20014 7.84 7.19994Z" fill="#213F7D"/>
</g>
<defs>
<clipPath id="clip0_20_814">
<rect width="16" height="12.8" fill="white"/>
</clipPath>
</defs>
</svg>
